<?xml version="1.0" standalone="no"?><!DOCTYPE svg PUBLIC "-//W3C//DTD SVG 1.1//EN"
        "http://www.w3.org/Graphics/SVG/1.1/DTD/svg11.dtd">
<svg t="1596785697067" class="icon" viewBox="0 0 1024 1024" version="1.1" xmlns="http://www.w3.org/2000/svg" p-id="1761"
     data-darkreader-inline-fill=""
     width="128" height="128">
    <defs>
        <style type="text/css">[data-darkreader-inline-fill] { fill: var(--darkreader-inline-fill) !important; }
            * { }
        </style>
    </defs>
    <path d="M707.3536 788.5056l-0.9472-0.0512c-88.7296-13.0048-192.1536-51.6608-291.2-108.8256C200.2432 555.52 68.736 379.3408 122.112 286.9248 148.48 241.2288 214.1952 222.464 307.2 234.1376c91.1104 11.392 198.1952 50.56 301.5936 110.2592 214.9632 124.1088 346.4704 300.288 293.0944 392.704-5.4784 9.4976-12.8 17.9712-21.7344 25.1648a6.4256 6.4256 0 0 1-9.0112-0.9728 6.4512 6.4512 0 0 1 0.9728-9.0112c7.7056-6.1952 13.9776-13.4656 18.688-21.6064 49.8176-86.3232-79.5648-254.6432-288.4352-375.2448-101.9392-58.8544-207.3344-97.4336-296.7808-108.6208-87.5008-10.9568-148.7616 5.5296-172.3904 46.464-49.8176 86.3232 79.5648 254.6432 288.4352 375.2448 97.664 56.3968 199.4752 94.464 286.6432 107.2384a6.4 6.4 0 0 1-0.9216 12.7488z"
          fill="#00CFFF" p-id="1762" data-darkreader-inline-fill="" style="--darkreader-inline-fill:#00a6cc;"></path>
    <path d="M256.3072 793.216c-66.0992 0-112.9472-19.3024-134.1952-56.1152-53.3504-92.416 78.1312-268.5952 293.0944-392.704C518.6048 284.6976 625.7152 245.5296 716.8 234.1376c92.9792-11.6224 158.72 7.0912 185.0624 52.7616 53.3504 92.416-78.1312 268.5952-293.0944 392.704-103.3984 59.6992-210.4832 98.8416-301.5936 110.2592-17.9968 2.2528-34.9952 3.3536-50.8672 3.3536zM768.1024 243.5328c-15.4368 0-32.0256 1.0752-49.6896 3.3024-89.4464 11.2128-194.8416 49.7664-296.7808 108.6208C212.7616 476.0576 83.3792 644.3776 133.1968 730.7008c23.6544 40.9344 84.9664 57.4464 172.3904 46.464 89.4464-11.2128 194.8416-49.7664 296.7808-108.6208 208.8704-120.576 338.2528-288.9216 288.4352-375.2448-18.8672-32.6656-61.6704-49.7664-122.7008-49.7664z"
          fill="#00CFFF" p-id="1763" data-darkreader-inline-fill="" style="--darkreader-inline-fill:#00a6cc;"></path>
    <path d="M512 962.2016c-106.7264 0-193.5616-201.9584-193.5616-450.2016S405.2736 61.7984 512 61.7984 705.5616 263.7568 705.5616 512 618.7264 962.2016 512 962.2016z m0-887.6032c-99.6608 0-180.7616 196.224-180.7616 437.4016S412.3392 949.4016 512 949.4016 692.7616 753.1776 692.7616 512 611.6608 74.5984 512 74.5984z"
          fill="#00CFFF" p-id="1764" data-darkreader-inline-fill="" style="--darkreader-inline-fill:#00a6cc;"></path>
    <path d="M616.7808 548.0192a8.8064 8.8064 0 0 1-3.1232-0.5376l-105.4976-36.224a9.6256 9.6256 0 0 1-6.272-6.9888l-21.632-97.1008a9.6256 9.6256 0 0 1 7.296-11.4688 9.728 9.728 0 0 1 11.4688 7.296l20.4544 91.8528 100.4032 34.4832a9.6 9.6 0 0 1-3.0976 18.688z"
          fill="#008CFF" p-id="1765" data-darkreader-inline-fill="" style="--darkreader-inline-fill:#33a7ff;"></path>
    <path d="M461.3632 595.6096a9.6 9.6 0 0 1-8.2176-14.5152l49.8944-83.8144a9.344 9.344 0 0 1 3.2256-3.2512l61.6192-37.8624a9.6 9.6 0 1 1 10.0608 16.3584l-59.6224 36.608-48.6912 81.792a9.6512 9.6512 0 0 1-8.2688 4.6848z"
          fill="#008CFF" p-id="1766" data-darkreader-inline-fill="" style="--darkreader-inline-fill:#33a7ff;"></path>
    <path d="M511.2832 511.7952h-0.2304l-76.3136-1.8176a9.6 9.6 0 0 1-9.3696-9.8304c0.128-5.2992 5.0688-8.9856 9.8304-9.3696l76.3136 1.8176a9.6 9.6 0 0 1-0.2304 19.2z"
          fill="#008CFF" p-id="1767" data-darkreader-inline-fill="" style="--darkreader-inline-fill:#33a7ff;"></path>
    <path d="M489.6512 405.0944m-24.7552 0a24.7552 24.7552 0 1 0 49.5104 0 24.7552 24.7552 0 1 0-49.5104 0Z"
          fill="#1AC678" p-id="1768" data-darkreader-inline-fill="" style="--darkreader-inline-fill:#47e79f;"></path>
    <path d="M434.9696 500.3776m-24.7552 0a24.7552 24.7552 0 1 0 49.5104 0 24.7552 24.7552 0 1 0-49.5104 0Z"
          fill="#1AC678" p-id="1769" data-darkreader-inline-fill="" style="--darkreader-inline-fill:#47e79f;"></path>
    <path d="M572.9024 464.3328m-18.5344 0a18.5344 18.5344 0 1 0 37.0688 0 18.5344 18.5344 0 1 0-37.0688 0Z"
          fill="#1AC678" p-id="1770" data-darkreader-inline-fill="" style="--darkreader-inline-fill:#47e79f;"></path>
    <path d="M616.7808 538.4192m-27.5968 0a27.5968 27.5968 0 1 0 55.1936 0 27.5968 27.5968 0 1 0-55.1936 0Z"
          fill="#1AC678" p-id="1771" data-darkreader-inline-fill="" style="--darkreader-inline-fill:#47e79f;"></path>
    <path d="M461.3888 586.0096m-39.9872 0a39.9872 39.9872 0 1 0 79.9744 0 39.9872 39.9872 0 1 0-79.9744 0Z"
          fill="#1AC678" p-id="1772" data-darkreader-inline-fill="" style="--darkreader-inline-fill:#47e79f;"></path>
    <path d="M511.2832 502.1952m-22.9376 0a22.9376 22.9376 0 1 0 45.8752 0 22.9376 22.9376 0 1 0-45.8752 0Z"
          fill="#1AC678" p-id="1773" data-darkreader-inline-fill="" style="--darkreader-inline-fill:#47e79f;"></path>
    <path d="M888.7808 781.7472c0-12.3392-19.8912-21.7088-46.2848-21.7088-4.608 0.0256-9.1904 0.3328-13.7472 0.9728v-30.2336c0-12.3392-19.8912-21.7088-46.2848-21.7088-26.3936 0-46.2848 9.2672-46.2848 21.7088v64.9216c0 12.3392 19.8912 21.7088 46.2848 21.7088 4.608 0.0256 9.1904-0.256 13.7728-0.8704v8.4992c0 12.3392 19.8912 21.7088 46.2848 21.7088 26.3936 0 46.2848-9.3184 46.2848-21.7088l-0.0256-43.2896z m-56.1152-14.4384c3.2512-0.3328 6.5024-0.512 9.7792-0.512 22.6816 0 39.5776 7.8592 39.5776 14.8992 0 7.04-16.896 14.8992-39.5008 14.8992-3.2512 0-6.2976-0.1536-9.2416-0.4608-17.8176-1.7664-30.2592-8.3968-30.2592-14.3872 0-0.8192 0.2048-1.6128 0.5888-2.3296 2.6112-5.3504 13.7984-10.496 29.056-12.1088z m-50.176-51.4816c22.6048 0 39.5008 7.8592 39.5008 14.9504s-16.896 14.848-39.5008 14.848c-22.6048 0-39.5008-7.8592-39.5008-14.848s16.9216-14.9504 39.5008-14.9504z m-39.5008 26.496c7.9872 6.1184 22.3744 10.112 39.5008 10.112s31.488-3.9424 39.5008-10.0608v9.9584c0 6.9632-16.896 14.848-39.5008 14.848-22.6048 0-39.5008-7.8592-39.5008-14.8992v-9.9584z m53.248 60.9536v6.3232a91.8016 91.8016 0 0 1-13.7728 0.9728c-22.5536 0-39.5008-7.8336-39.5008-14.8736v-10.1376c7.9872 6.144 22.3744 10.112 39.5008 10.112 4.608 0.0256 9.1904-0.2816 13.7728-0.8704v8.4736z m0-21.5296v6.1696c-4.5568 0.6912-9.1648 1.024-13.7728 1.024-22.5536 0-39.5008-7.9104-39.5008-14.9504v-10.112c7.9872 6.1184 22.3744 10.112 39.5008 10.112 6.0416 0.0256 12.0576-0.512 17.9712-1.5872a13.44 13.44 0 0 0-4.1984 9.344z m6.784 11.52c6.5024 5.0176 17.3824 8.5504 30.4128 9.6768 2.944 0.256 5.9648 0.384 9.1136 0.384 17.1264 0 31.488-3.9424 39.5008-10.0608v9.9328c0 7.0656-16.896 14.9248-39.5008 14.9248a75.52 75.52 0 0 1-8.832-0.512v0.0512c-18.048-1.7152-30.6944-8.3968-30.6944-14.464v-9.9328z m79.0272 31.6928c0 7.0144-16.9216 14.8736-39.5264 14.8736s-39.5008-7.8592-39.5008-14.8992v-9.7024l0.4352-0.1024c8.064 5.9392 22.2464 9.7792 39.0912 9.7792 17.1264 0 31.488-3.9424 39.5008-10.0608v10.112z"
          fill="#008CFF" p-id="1774" data-darkreader-inline-fill="" style="--darkreader-inline-fill:#33a7ff;"></path>
</svg>