<?xml version="1.0" standalone="no"?><!DOCTYPE svg PUBLIC "-//W3C//DTD SVG 1.1//EN"
        "http://www.w3.org/Graphics/SVG/1.1/DTD/svg11.dtd">
<svg t="1596785504399" class="icon" viewBox="0 0 1024 1024" version="1.1" xmlns="http://www.w3.org/2000/svg" p-id="2180"
     data-darkreader-inline-fill=""
     width="128" height="128">
    <defs>
        <style type="text/css">[data-darkreader-inline-fill] { fill: var(--darkreader-inline-fill) !important; }
            * { }
        </style>
    </defs>
    <path d="M642.3 823.1H381.95c-2.3 0.05-4.6-0.4-6.85-1.4-8.05-3.65-11.65-13.1-8-21.15l46.9-103.9c2.3-6.05 8.15-10.35 14.95-10.35h165.65c6.2-0.1 12.15 3.4 14.9 9.4l-14.6 6.6 14.55-6.55 46.9 103.9c1.2 2.25 1.85 4.75 1.85 7.45 0.1 8.85-7.05 16-15.9 16z"
          fill="#263238" p-id="2181" data-darkreader-inline-fill="" style="--darkreader-inline-fill:#1e282d;"></path>
    <path d="M308.45 791.1c-8.85 0-16 7.15-16 16s7.15 16 16 16h407.15c8.85 0 16-7.15 16-16s-7.15-16-16-16H308.45z"
          fill="#263238" p-id="2182" data-darkreader-inline-fill="" style="--darkreader-inline-fill:#1e282d;"></path>
    <path d="M191 200.9h642c17.35 0 33.1 7.1 44.5 18.5 11.4 11.4 18.5 27.15 18.5 44.5v391.5c0 17.35-7.1 33.1-18.5 44.5-11.4 11.4-27.15 18.5-44.5 18.5H191c-17.35 0-33.1-7.1-44.5-18.5-11.4-11.4-18.5-27.15-18.5-44.5v-391.5c0-17.35 7.1-33.1 18.5-44.5 11.4-11.45 27.15-18.5 44.5-18.5z"
          fill="#37474F" p-id="2183" data-darkreader-inline-fill="" style="--darkreader-inline-fill:#2c393f;"></path>
    <path d="M191 248.9c-4 0-7.7 1.6-10.55 4.45-2.85 2.85-4.45 6.55-4.45 10.55v391.5c0 4 1.6 7.7 4.45 10.55s6.55 4.45 10.55 4.45h642c4 0 7.7-1.6 10.55-4.45s4.45-6.55 4.45-10.55v-391.5c0-4-1.6-7.7-4.45-10.55-2.85-2.85-6.55-4.45-10.55-4.45H191z"
          fill="#ECEFF1" p-id="2184" data-darkreader-inline-fill="" style="--darkreader-inline-fill:#212425;"></path>
    <path d="M436.5 355.5c5.15-1.7 11.7 4.15 14.65 13.05 2.95 8.9 1.15 17.5-4 19.2-5.15 1.7-11.7-4.15-14.65-13.05-2.95-8.9-1.15-17.5 4-19.2zM587.25 355.5c-5.15-1.7-11.7 4.15-14.65 13.05-2.95 8.9-1.15 17.5 4 19.2 5.15 1.7 11.7-4.15 14.65-13.05 2.95-8.9 1.15-17.5-4-19.2z"
          fill="#DBC0B2" p-id="2185" data-darkreader-inline-fill="" style="--darkreader-inline-fill:#d6b6a6;"></path>
    <path d="M484.75 450.15c-60.3 26.45-78.35 40.5-85.5 46.85-11 9.75-17.1 46.1-23.6 76.95h272.75c-6.5-30.85-12.6-67.2-23.6-76.95-7.15-6.35-24.55-20.05-84.85-46.5l-55.2-0.35z"
          fill="#FFDDCC" p-id="2186" data-darkreader-inline-fill="" style="--darkreader-inline-fill:#521b00;"></path>
    <path d="M484.75 450.15c-60.3 26.45-78.35 40.5-85.5 46.85-11 9.75-17.1 46.1-23.6 76.95h272.75c-6.5-30.85-12.6-67.2-23.6-76.95-7.15-6.35-24.55-20.05-84.85-46.5l-55.2-0.35z"
          fill="#212121" p-id="2187" data-darkreader-inline-fill="" style="--darkreader-inline-fill:#191b1c;"></path>
    <path d="M541.25 397.5v66.8c-16.1 19.7-42.45 19.05-58.55 0V397.5c0-36.1 58.55-36.1 58.55 0z" fill="#ECCEBE"
          p-id="2188" data-darkreader-inline-fill="" style="--darkreader-inline-fill:#e6bfaa;"></path>
    <path d="M541.25 397.5v44.75c-11.1 8.05-21.75 12.6-29.25 12.6s-18.2-4.5-29.25-12.6V397.5c-0.05-36.1 58.5-36.1 58.5 0z"
          fill="#DFC4B6" p-id="2189" data-darkreader-inline-fill="" style="--darkreader-inline-fill:#d9b9a8;"></path>
    <path d="M512 277.5c-98.25 0-62.9 118.7-56.5 128.15 7.1 10.4 40.6 38.05 56.5 38.05 15.85 0 49.4-27.6 56.5-38.05 6.4-9.4 41.75-128.15-56.5-128.15z"
          fill="#ECCEBE" p-id="2190" data-darkreader-inline-fill="" style="--darkreader-inline-fill:#e6bfaa;"></path>
    <path d="M467.1 317.25c-5.7 31.15-19.95 28.25-18.85 64.75-4.2-26.2-12.45-59.4 4.25-79.6-3.5-1.05-15.3-16.6-17.2-25.9 17.15 14.4 30.3 1.15 50.95-5.1 9.15-2.8 19.1-4.95 29.9-4.55 12.45 0.45 25.95 4 40.5 13.25 24.1 15.3 36.95 47.4 19.75 96.8-2.6-17.4-2.3-30.75-14.25-42.6-12.6-12.3-40.8 21.25-95.05-17.05z"
          fill="#293439" p-id="2191" data-darkreader-inline-fill="" style="--darkreader-inline-fill:#c9c4bd;"></path>
    <path d="M512.15 478.85s-40.85 9.75-40.85 12.25c0 2.45 15.55 82.9 15.55 82.9h55.45l6.35-82.55-36.5-12.6z"
          fill="#C7B7B7" p-id="2192" data-darkreader-inline-fill="" style="--darkreader-inline-fill:#c0bab2;"></path>
    <path d="M482.7 451.05v13.25l12.75 109.65h-21.85l-24.1-48.85 23-15.3-28.1-13.1 25.8-40.05zM541.25 451.1v13.2l-12.85 109.65h21.9l24.05-48.85-22.95-15.3 28.05-13.1-22.95-38.8z"
          fill="#424242" p-id="2193" data-darkreader-inline-fill="" style="--darkreader-inline-fill:#beb9b0;"></path>
    <path d="M482.7 442.25l-2.55 9.95 7.2 51.8 24.8-25.15z" fill="#FFFFFF" p-id="2194" data-darkreader-inline-fill=""
          style="--darkreader-inline-fill:#e8e6e3;"></path>
    <path d="M499.4 492.4l7.1 11h11l7.1-11-12.45-13.55-12.75 13.55z" fill="#A61E1E" p-id="2195"
          data-darkreader-inline-fill="" style="--darkreader-inline-fill:#e26060;"></path>
    <path d="M506.5 503.4l-10.1 70.55h31.2l-10.1-70.55z" fill="#C62828" p-id="2196" data-darkreader-inline-fill=""
          style="--darkreader-inline-fill:#da4a4a;"></path>
    <path d="M541.25 442.25l2.05 9.75-6.75 52.55-24.4-25.7z" fill="#FFFFFF" p-id="2197" data-darkreader-inline-fill=""
          style="--darkreader-inline-fill:#e8e6e3;"></path>
    <path d="M431.2 573.95h4.65c-0.2-20.75-0.2-35.75-0.2-35.75s-2.05 15.55-4.45 35.75zM592.8 573.95h-4.65c0.2-20.75 0.2-35.75 0.2-35.75s2.05 15.55 4.45 35.75z"
          fill="#757575" p-id="2198" data-darkreader-inline-fill="" style="--darkreader-inline-fill:#9e9689;"></path>
    <path d="M482.25 401.8c19.75 7.05 42.7 5.9 59.5 0-5.5 25.25-49 25.9-59.5 0z" fill="#E4B7A0" p-id="2199"
          data-darkreader-inline-fill="" style="--darkreader-inline-fill:#e1af95;"></path>
    <path d="M176 568.75v86.6c0 4 1.6 7.7 4.45 10.55s6.55 4.45 10.55 4.45h642c4 0 7.7-1.6 10.55-4.45 2.7-2.7 4.3-6.2 4.4-10v-87.15H176z"
          fill="#3E2723" p-id="2200" data-darkreader-inline-fill="" style="--darkreader-inline-fill:#321f1c;"></path>
    <path d="M577.45 579.65l31.75 76.35-184.4-0.05 33.55-76.3z" fill="#EEEEEE" p-id="2201"
          data-darkreader-inline-fill="" style="--darkreader-inline-fill:#222426;"></path>
    <path d="M563.9 583.25l7.35 79.15-156.45-11.4 58.45-74.7z" fill="#FAFAFA" p-id="2202" data-darkreader-inline-fill=""
          style="--darkreader-inline-fill:#e5e3df;"></path>
    <path d="M750.05 264.9h51.9c8.3 0 15.8 3.4 21.25 8.8 5.45 5.45 8.8 12.95 8.8 21.25v51.9c0 8.3-3.4 15.8-8.8 21.25-5.45 5.45-12.95 8.8-21.25 8.8h-51.9c-8.3 0-15.8-3.4-21.25-8.8-5.45-5.45-8.8-12.95-8.8-21.25V294.9c0-8.3 3.4-15.8 8.8-21.25 5.45-5.4 12.95-8.75 21.25-8.75z"
          fill="#E53935" p-id="2203" data-darkreader-inline-fill="" style="--darkreader-inline-fill:#e74844;"></path>
</svg>