<?xml version="1.0" standalone="no"?><!DOCTYPE svg PUBLIC "-//W3C//DTD SVG 1.1//EN" "http://www.w3.org/Graphics/SVG/1.1/DTD/svg11.dtd"><svg t="1596785751931" class="icon" viewBox="0 0 1024 1024" version="1.1" xmlns="http://www.w3.org/2000/svg" p-id="1462" data-darkreader-inline-fill="" xmlns:xlink="http://www.w3.org/1999/xlink" width="128" height="128"><defs><style type="text/css">[data-darkreader-inline-fill] { fill: var(--darkreader-inline-fill)  !important; }
* {  }
</style></defs><path d="M512 382.8224a132.1728 132.1728 0 0 0-132.1984 132.1984 132.1728 132.1728 0 1 0 264.3968 0.0768A132.2496 132.2496 0 0 0 512 382.8224z m-80.0256 213.6064a117.5296 117.5296 0 0 1-31.2832-61.2864c-1.5616-6.3744 1.1008-8.3968 5.8112-8.2176 9.4976-0.1792 19.0208-0.1792 28.0576 1.5616 32.2048 6.272 43.7504 22.3488 49.4848 59.1616 2.0224 13.3888 3.4048 29.0816 4.5312 40.4224a111.3344 111.3344 0 0 1-56.6016-31.6416zM512 561.6384a45.1584 45.1584 0 0 1-32.3072-13.7472 47.6928 47.6928 0 0 1-13.3888-33.2288c0-11.904 4.352-22.8096 11.3664-31.0272-8.2176 0.4608-48.384 1.024-67.0208 1.7664-5.632 0.2816-7.6544-2.4832-6.1952-8.32a117.5552 117.5552 0 0 1 27.4176-45.5936c20.6848-21.3248 50.4064-31.9488 80.128-31.9488s59.4432 10.624 80.0256 31.9488c12.288 12.6464 21.7856 28.2368 27.4176 45.5936 1.5616 5.8112-0.5632 8.576-6.1952 8.32-18.6368-0.7424-58.8032-1.28-67.0208-1.7664 7.1168 8.32 11.3664 19.2 11.3664 31.0272a47.2576 47.2576 0 0 1-23.3472 40.9856c-6.912 3.9424-14.592 5.9904-22.2464 5.9904z m80.0256 34.7904a112.4352 112.4352 0 0 1-56.576 31.6672c1.1008-11.3664 2.4064-27.0592 4.5312-40.4224 5.7344-36.9152 17.2544-52.992 49.4848-59.1616 9.0368-1.7408 18.56-1.8432 28.0576-1.5616 4.7104-0.1792 7.3728 1.8432 5.8112 8.2176a117.5808 117.5808 0 0 1-31.3088 61.2608z" fill="#1AC678" p-id="1463" data-darkreader-inline-fill="" style="--darkreader-inline-fill:#159e60;"></path><path d="M538.9568 486.8608c-13.9264-14.4128-40.064-14.4128-53.9904 0-6.912 7.1168-11.1616 16.9984-11.1616 27.776a39.2448 39.2448 0 0 0 20.1984 34.7904 37.5808 37.5808 0 0 0 44.9536-6.912c6.912-7.1168 11.1616-16.9984 11.1616-27.8784 0-10.88-4.2496-20.6848-11.1616-27.776z m-20.0448 42.368a15.1808 15.1808 0 0 1-13.8496 0 16.3328 16.3328 0 0 1-8.8576-14.592 16.384 16.384 0 0 1 9.7792-15.0528 15.9744 15.9744 0 0 1 12.0064 0 16.2304 16.2304 0 0 1 9.7792 15.0528 16.2816 16.2816 0 0 1-8.8576 14.592z" fill="#1AC678" p-id="1464" data-darkreader-inline-fill="" style="--darkreader-inline-fill:#47e79f;"></path><path d="M708.0192 120.4224l-2.432 18.7648h23.1936l-2.432-18.7648a9.2416 9.2416 0 0 0-18.3296 0zM726.5792 341.5808l-0.2304-84.7104c0-4.352-3.584-7.8592-7.936-7.7824l-1.4848 0.0256a7.7824 7.7824 0 0 0-7.6544 7.808v84.6592c0 12.544 0 20.7872-14.72 20.7872-9.4208 0-13.6704-4.5568-14.8224-15.3856a7.8592 7.8592 0 0 0-7.7312-7.1168 7.8336 7.8336 0 0 0-7.808 8.5248c1.7408 16.9728 9.3952 29.1584 29.9264 29.1584 22.528-0.0256 32.4608-14.7456 32.4608-35.968zM697.2416 151.3728c-54.1184 5.376-95.9744 38.1696-121.2672 88.32h5.1968c14.3104-11.6736 21.6576-14.3104 33.792-14.3104 14.3872 0 22.8352 4.6336 30.208 11.3408 4.1216-42.2144 33.7408-71.2704 52.0704-85.3504z" fill="#008CFF" p-id="1465" data-darkreader-inline-fill="" style="--darkreader-inline-fill:#0070cc;"></path><path d="M710.8608 234.4192V153.9584c-15.616 11.136-48.7936 39.4496-54.0416 81.408 8.3712-6.6048 15.744-9.9584 27.2896-9.9584 11.9552-0.0256 20.0704 3.6096 26.752 9.0112zM737.152 151.3728c54.1184 5.376 95.9744 38.1696 121.2672 88.32h-5.1968c-14.3104-11.6736-21.6576-14.3104-33.792-14.3104-14.3872 0-22.8352 4.6336-30.208 11.3408-4.1216-42.2144-33.7408-71.2704-52.0704-85.3504z" fill="#008CFF" p-id="1466" data-darkreader-inline-fill="" style="--darkreader-inline-fill:#0070cc;"></path><path d="M723.5328 234.4192V153.9584c15.616 11.136 48.7936 39.4496 54.0416 81.408-8.3712-6.6048-15.744-9.9584-27.2896-9.9584-11.9552-0.0256-20.0704 3.6096-26.752 9.0112zM134.656 647.04a9.6512 9.6512 0 0 1-9.1392-6.6304 405.8112 405.8112 0 0 1-19.712-125.3376c0-223.9744 182.2208-406.1952 406.1696-406.1952 38.912 0 77.44 5.504 114.5088 16.3584a9.5744 9.5744 0 1 1-5.4016 18.4064A388.608 388.608 0 0 0 512 128.0768c-213.376 0-386.9696 173.5936-386.9696 386.9952 0 40.8064 6.3232 80.9728 18.7648 119.424a9.6256 9.6256 0 0 1-9.1392 12.544z" fill="#008CFF" p-id="1467" data-darkreader-inline-fill="" style="--darkreader-inline-fill:#0070cc;"></path><path d="M512 921.2416c-59.4176 0-116.6592-12.544-170.1632-37.2736a9.6 9.6 0 0 1 8.064-17.4336c102.5024 47.36 223.5648 47.0784 325.9648-0.7936a9.6256 9.6256 0 0 1 8.1408 17.408A403.2256 403.2256 0 0 1 512 921.2416z" fill="#008CFF" p-id="1468" data-darkreader-inline-fill="" style="--darkreader-inline-fill:#0070cc;"></path><path d="M813.1328 782.72a9.6256 9.6256 0 0 1-7.296-15.8464 386.944 386.944 0 0 0 93.1328-251.8016c0-82.0224-25.3184-160.384-73.2416-226.6112a9.5744 9.5744 0 0 1 2.1504-13.3888 9.5488 9.5488 0 0 1 13.3888 2.1504 403.2 403.2 0 0 1 76.9024 237.8752c0 96.9472-34.7136 190.8224-97.7408 264.2944a9.6768 9.6768 0 0 1-7.296 3.328z" fill="#008CFF" p-id="1469" data-darkreader-inline-fill="" style="--darkreader-inline-fill:#0070cc;"></path><path d="M272.9216 634.496a6.4256 6.4256 0 0 1-5.7856-3.6608 268.4416 268.4416 0 0 1-25.9328-115.7632c0-149.3248 121.472-270.7968 270.7968-270.7968 9.216 0 18.5344 0.4864 27.6992 1.408a6.4 6.4 0 1 1-1.3056 12.7232c-8.704-0.8704-17.5872-1.3312-26.3936-1.3312-142.2592 0-257.9968 115.7376-257.9968 257.9968 0 38.5792 8.32 75.6736 24.704 110.3104a6.4 6.4 0 0 1-5.7856 9.1136z" fill="#00CFFF" p-id="1470" data-darkreader-inline-fill="" style="--darkreader-inline-fill:#00a6cc;"></path><path d="M512 785.8432c-52.7104 0-103.7568-15.1296-147.6864-43.776a6.4 6.4 0 0 1-1.8688-8.8576 6.4768 6.4768 0 0 1 8.8576-1.8688A256.9984 256.9984 0 0 0 512 773.0432c142.2592 0 257.9968-115.7376 257.9968-257.9712a255.744 255.744 0 0 0-25.1648-111.2832 6.3744 6.3744 0 0 1 3.0208-8.5248 6.3488 6.3488 0 0 1 8.5248 3.0208 268.2112 268.2112 0 0 1 26.4192 116.8128c0 149.2736-121.472 270.7456-270.7968 270.7456z" fill="#00CFFF" p-id="1471" data-darkreader-inline-fill="" style="--darkreader-inline-fill:#00a6cc;"></path><path d="M311.4752 759.296h-30.592v-19.7376a30.464 30.464 0 0 0 30.592-30.4384h-30.592a19.5328 19.5328 0 0 0-19.84-19.7376h-61.184a19.5328 19.5328 0 0 0-19.84 19.7376H149.376a30.464 30.464 0 0 0 30.592 30.4384v19.7376H149.376a30.464 30.464 0 0 0 30.592 30.4384v19.7376H149.376a30.464 30.464 0 0 0 30.592 30.4384v9.8816c0 11.52 9.088 19.7376 19.84 19.7376h60.3648a19.5328 19.5328 0 0 0 19.84-19.7376v-9.8816a30.464 30.464 0 0 0 30.592-30.4384h-30.592v-19.7376c17.3824 0 31.4624-14.0032 31.4624-30.4384z m-80.9728 98.2016a21.0432 21.0432 0 1 1 0.0256-42.0608 21.0432 21.0432 0 0 1-0.0256 42.0608z m0-54.0416a21.0432 21.0432 0 1 1 0.0256-42.0608 21.0432 21.0432 0 0 1-0.0256 42.0608z m0-54.0416a21.0432 21.0432 0 1 1 0.0256-42.0608 21.0432 21.0432 0 0 1-0.0256 42.0608zM800.6912 854.5792l-15.3344-15.3344a53.504 53.504 0 0 0 9.6512-30.6176c0-29.696-24.1408-53.8368-53.8368-53.8368s-53.8624 24.1408-53.8624 53.8368 24.1664 53.8624 53.8624 53.8624a53.504 53.504 0 0 0 30.6176-9.6512l15.3344 15.3344a9.5744 9.5744 0 0 0 13.568 0 9.6512 9.6512 0 0 0 0-13.5936z m-94.1824-45.9776a34.6624 34.6624 0 1 1 69.2736 0.0512 34.6624 34.6624 0 0 1-69.2736-0.0512z" fill="#008CFF" p-id="1472" data-darkreader-inline-fill="" style="--darkreader-inline-fill:#0070cc;"></path></svg>