<?xml version="1.0" standalone="no"?><!DOCTYPE svg PUBLIC "-//W3C//DTD SVG 1.1//EN" "http://www.w3.org/Graphics/SVG/1.1/DTD/svg11.dtd"><svg t="1596785492839" class="icon" viewBox="0 0 1024 1024" version="1.1" xmlns="http://www.w3.org/2000/svg" p-id="2033" data-darkreader-inline-fill="" xmlns:xlink="http://www.w3.org/1999/xlink" width="128" height="128"><defs><style type="text/css">[data-darkreader-inline-fill] { fill: var(--darkreader-inline-fill)  !important; }
* {  }
</style></defs><path d="M446.55 193.45v111.25L512 370.1l65.45-65.45V193.45c0-18-7.35-34.35-19.25-46.2-11.85-11.85-28.2-19.25-46.2-19.25-18 0-34.35 7.35-46.2 19.25-11.85 11.85-19.25 28.2-19.25 46.2z" fill="#EF5350" p-id="2034" data-darkreader-inline-fill="" style="--darkreader-inline-fill:#98100e;"></path><path d="M653.9 512l65.45 65.45h111.25c18 0 34.35-7.35 46.2-19.25 11.85-11.85 19.25-28.2 19.25-46.2 0-18-7.35-34.35-19.25-46.2-11.85-11.85-28.2-19.25-46.2-19.25h-111.25L653.9 512z" fill="#29B6F6" p-id="2035" data-darkreader-inline-fill="" style="--darkreader-inline-fill:#077cb1;"></path><path d="M783.55 783.55z m-171.2-78.65l78.65 78.65c12.7 12.7 29.5 19.05 46.25 19.05 16.5 0 33.9-6.4 46.25-19.05 25.4-25.4 25.4-67.1 0-92.55l-78.65-78.65h-92.55l0.05 92.55z" fill="#FFB300" p-id="2036" data-darkreader-inline-fill="" style="--darkreader-inline-fill:#ffbb1a;"></path><path d="M446.55 719.35v111.25c0 18 7.35 34.35 19.25 46.2 11.85 11.85 28.2 19.25 46.2 19.25s34.35-7.35 46.2-19.25c11.85-11.85 19.25-28.2 19.25-46.2v-111.25L512 653.9l-65.45 65.45z" fill="#EF5350" p-id="2037" data-darkreader-inline-fill="" style="--darkreader-inline-fill:#98100e;"></path><path d="M128 512c0 18 7.35 34.35 19.25 46.2 11.85 11.85 28.2 19.25 46.2 19.25h111.25L370.1 512 304.65 446.55H193.45c-18 0-34.35 7.35-46.2 19.25C135.35 477.65 128 494 128 512z" fill="#29B6F6" p-id="2038" data-darkreader-inline-fill="" style="--darkreader-inline-fill:#077cb1;"></path><path d="M612.35 319.1v92.55h92.55L783.55 333c12.7-12.7 19.05-29.5 19.05-46.25 0-16.8-6.35-33.55-19.05-46.25-12.7-12.7-29.5-19.05-46.25-19.05-16.8 0-33.55 6.35-46.25 19.05l-78.7 78.6z" fill="#388E3C" p-id="2039" data-darkreader-inline-fill="" style="--darkreader-inline-fill:#77c97b;"></path><path d="M240.45 240.45z m0 92.55l78.65 78.65h92.55V319.1L333 240.45c-25.5-25.5-67.5-25.3-92.45-0.1l-0.1 0.1c-25.4 25.45-25.4 67.15 0 92.55z" fill="#FFB300" p-id="2040" data-darkreader-inline-fill="" style="--darkreader-inline-fill:#ffbb1a;"></path><path d="M240.45 691c-12.7 12.7-19.05 29.5-19.05 46.25 0 16.8 6.35 33.55 19.05 46.25 12.7 12.7 29.5 19.05 46.25 19.05 16.8 0 33.55-6.35 46.25-19.05l78.65-78.65v-92.55h-92.5L240.45 691z" fill="#388E3C" p-id="2041" data-darkreader-inline-fill="" style="--darkreader-inline-fill:#77c97b;"></path><path d="M375 455.25v113.5l80.25 80.3h113.5l80.3-80.3v-113.5L568.75 375h-113.5z" fill="#37474F" p-id="2042" data-darkreader-inline-fill="" style="--darkreader-inline-fill:#2c393f;"></path></svg>