<?xml version="1.0" standalone="no"?><!DOCTYPE svg PUBLIC "-//W3C//DTD SVG 1.1//EN" "http://www.w3.org/Graphics/SVG/1.1/DTD/svg11.dtd"><svg t="1596785381978" class="icon" viewBox="0 0 1024 1024" version="1.1" xmlns="http://www.w3.org/2000/svg" p-id="1225" data-darkreader-inline-fill="" width="128" height="128" xmlns:xlink="http://www.w3.org/1999/xlink"><defs><style type="text/css">[data-darkreader-inline-fill] { fill: var(--darkreader-inline-fill)  !important; }
* {  }
</style></defs><path d="M284 332c0-125.9 102.1-228 228-228s228 102.1 228 228-102.1 228-228 228-228-102.1-228-228z" fill="#EEEFF3" p-id="1226" data-darkreader-inline-fill="" style="--darkreader-inline-fill:#202324;"></path><path d="M443.9 115l6.2 3.9c14.5 9.7 28.8 21.7 36.4 28.3 12.2 10.6 16 13.2 11.9 21.8-4.1 8.6-20.8 16.2-36.6 29.7-15.8 13.6-41.9 42.6-58.4 51.6-16.5 8.9-35.8-4.3-40.6 2-4.8 6.3 11.7 26.3 11.9 35.7 0.2 9.4-1.6 19.8-10.9 20.8-9.2 1-34.5-5-44.5-14.9-10.1-9.9-10.7-24.8-15.8-44.6l-1.4-4.5 0.5-1.3c23-54.4 66.5-98.1 120.9-121.1l20.4-7.4zM393.8 313c9.6-1 9.6 20.3 21.9 25.8 12.3 5.5 38.7 1.2 51.7 6.9 12.9 5.8 17.7 22 25.8 27.8 8.1 5.8 22.4-3.6 22.8 6.9 0.5 10.6-14.1 42.3-19.9 56.5-5.8 14.2-8.8 19.3-14.9 28.8-6.1 9.4-15.7 16.5-21.9 27.8-6.1 11.2-8.4 35.9-14.9 39.7-6.5 3.8-19-6.9-23.8-16.9-4.8-9.9-5-42.6-5-42.6-2.2-18.5 0.3-55.2-7.9-68.4-8.3-13.2-33.4-0.8-41.7-10.9-8.3-10.1-12.9-36-7.9-49.6 4.9-13.6 26.1-30.8 35.7-31.8zM562.9 208c12.1 0.1 26.3 3.4 37.1 5.9 17.4 4.1 28.5 19.5 48.6 22.9 15.1 2.5 33.6 1.3 53-0.7l16.3-1.9 4.2 8.7c11.5 27.3 17.9 57.3 17.9 88.8 0 47.2-14.3 91.1-38.9 127.5l-5 6.7-3.5-0.9c-6.7-1.9-8.2-3.1-12.1-9.6-5.3-8.6-6.5-24-10.9-39.8-4.5-15.7-12.4-39.9-15.9-54.7-3.5-14.7 3-24.4-5-33.8-7.9-9.4-28.3-19.2-42.7-22.9-14.4-3.6-30.3 8.1-43.7 1-13.4-7.1-33.8-28.2-36.7-43.7-3-15.6 6.5-41.7 18.9-49.7 4.6-2.8 11.1-3.9 18.4-3.8zM625 134l14.4 8.8c18.3 12.4 34.6 27.3 48.6 44.3l9 11.9-7.9 0.7c-12.7 0.7-26.6 0.2-37.5-1.1-21.8-2.7-43-18-62.8-21-19.8-3-49 7.7-55.8 3-6.8-4.7 5.7-26.3 15-31 9.3-4.7 25.3 7 40.9 3 9.8-2.5 23.4-11 35.1-17.9l1-0.7z" fill="#37CBCF" p-id="1227" data-darkreader-inline-fill="" style="--darkreader-inline-fill:#279ea1;"></path><path d="M50.2 380.1c6.2-0.6 12.5 1 16.9 4.5 11.5 9.3 18.5 51.6 32.2 75 13.7 23.4 29.5 48.2 49.9 65.4 20.4 17.2 67.1 41.2 72.5 37.9 5.4-3.2-38.8-43.3-40.3-57.3s10.1-37.8 31.4-26.6 57.6 65.1 96.6 93.6 112.1 44 137.7 77.5c25.6 33.5 16.1 95 16.1 123.5l-0.1 2.4H280.4v-3.2c0.4-20 1.6-48-25.7-71-36.4-30.7-107.5-67.9-138.5-96-31-28.1-33.2-39-47.5-72.6C54.3 499.5 30.3 428.7 30 404c-0.2-15.5 9.8-22.8 20.2-23.9z" fill="#FFE9BE" p-id="1228" data-darkreader-inline-fill="" style="--darkreader-inline-fill:#5a3c00;"></path><path d="M258 763.8c0-4.9 4-8.8 8.8-8.8h204.3c4.9 0 8.8 4 8.8 8.8v64.3c0 4.9-4 8.8-8.8 8.8H266.8c-4.9 0-8.8-4-8.8-8.8v-64.3z" fill="#7DDDE0" p-id="1229" data-darkreader-inline-fill="" style="--darkreader-inline-fill:#1c7477;"></path><path d="M464 785h-28 28zM436 785h28v0.6h-28zM436 785.6h28v2.2h-28z" fill="#F2F2F2" p-id="1230" data-darkreader-inline-fill="" style="--darkreader-inline-fill:#e0ddd9;"></path><path d="M436 787.8h28v2.2h-28z" fill="#F3F3F3" p-id="1231" data-darkreader-inline-fill="" style="--darkreader-inline-fill:#e0deda;"></path><path d="M436 790h28v2.2h-28z" fill="#F4F4F4" p-id="1232" data-darkreader-inline-fill="" style="--darkreader-inline-fill:#e1dedb;"></path><path d="M436 792.1h28v2.2h-28z" fill="#F5F5F5" p-id="1233" data-darkreader-inline-fill="" style="--darkreader-inline-fill:#e2dfdb;"></path><path d="M436 794.3h28v2.2h-28z" fill="#F6F6F6" p-id="1234" data-darkreader-inline-fill="" style="--darkreader-inline-fill:#e2e0dc;"></path><path d="M436 796.5h28v2.2h-28z" fill="#F7F7F7" p-id="1235" data-darkreader-inline-fill="" style="--darkreader-inline-fill:#e3e1dd;"></path><path d="M436 798.7h28v2.2h-28z" fill="#F9F9F9" p-id="1236" data-darkreader-inline-fill="" style="--darkreader-inline-fill:#e4e2de;"></path><path d="M436 800.9h28v2.2h-28z" fill="#FAFAFA" p-id="1237" data-darkreader-inline-fill="" style="--darkreader-inline-fill:#e5e3df;"></path><path d="M436 803.1h28v2.2h-28z" fill="#FBFBFB" p-id="1238" data-darkreader-inline-fill="" style="--darkreader-inline-fill:#e5e3e0;"></path><path d="M436 805.3h28v2.2h-28z" fill="#FCFCFC" p-id="1239" data-darkreader-inline-fill="" style="--darkreader-inline-fill:#e6e4e1;"></path><path d="M436 807.4h28v2.2h-28z" fill="#FDFDFD" p-id="1240" data-darkreader-inline-fill="" style="--darkreader-inline-fill:#e7e5e1;"></path><path d="M436 809.6h28v2.2h-28z" fill="#FEFEFE" p-id="1241" data-darkreader-inline-fill="" style="--darkreader-inline-fill:#e7e5e2;"></path><path d="M436 811.8h28v2.2h-28zM436 814h28-28z" fill="#FFFFFF" p-id="1242" data-darkreader-inline-fill="" style="--darkreader-inline-fill:#e8e6e3;"></path><path d="M969.8 380.1c-6.2-0.6-12.5 1-16.9 4.5-11.5 9.3-18.5 51.6-32.2 75.1-13.7 23.4-29.5 48.2-49.9 65.4-20.4 17.2-67.1 41.2-72.5 37.9-5.4-3.2 38.8-43.3 40.3-57.3s-10.1-37.8-31.4-26.6c-21.3 11.2-57.6 65.1-96.6 93.6-39.1 28.5-112.1 44-137.7 77.5-25.6 33.5-16.1 95-16.1 123.5l0.1 2.4h182.8v-3.2c-0.4-20-1.6-48 25.7-71 36.4-30.7 107.5-67.9 138.5-96 31-28.1 33.2-39 47.5-72.6 14.4-33.6 38.4-104.4 38.7-129.1 0.1-15.7-9.9-23-20.3-24.1z" fill="#FFE9BE" p-id="1243" data-darkreader-inline-fill="" style="--darkreader-inline-fill:#5a3c00;"></path><path d="M761 763.8c0-4.9-4-8.8-8.8-8.8H548.8c-4.9 0-8.8 4-8.8 8.8v64.3c0 4.9 4 8.8 8.8 8.8h203.3c4.9 0 8.8-4 8.8-8.8v-64.3z" fill="#7DDDE0" p-id="1244" data-darkreader-inline-fill="" style="--darkreader-inline-fill:#1c7477;"></path><path d="M584 785h-28 28zM556 785h28v0.6h-28zM556 785.6h28v2.2h-28z" fill="#F2F2F2" p-id="1245" data-darkreader-inline-fill="" style="--darkreader-inline-fill:#e0ddd9;"></path><path d="M556 787.8h28v2.2h-28z" fill="#F3F3F3" p-id="1246" data-darkreader-inline-fill="" style="--darkreader-inline-fill:#e0deda;"></path><path d="M556 790h28v2.2h-28z" fill="#F4F4F4" p-id="1247" data-darkreader-inline-fill="" style="--darkreader-inline-fill:#e1dedb;"></path><path d="M556 792.1h28v2.2h-28z" fill="#F5F5F5" p-id="1248" data-darkreader-inline-fill="" style="--darkreader-inline-fill:#e2dfdb;"></path><path d="M556 794.3h28v2.2h-28z" fill="#F6F6F6" p-id="1249" data-darkreader-inline-fill="" style="--darkreader-inline-fill:#e2e0dc;"></path><path d="M556 796.5h28v2.2h-28z" fill="#F7F7F7" p-id="1250" data-darkreader-inline-fill="" style="--darkreader-inline-fill:#e3e1dd;"></path><path d="M556 798.7h28v2.2h-28z" fill="#F9F9F9" p-id="1251" data-darkreader-inline-fill="" style="--darkreader-inline-fill:#e4e2de;"></path><path d="M556 800.9h28v2.2h-28z" fill="#FAFAFA" p-id="1252" data-darkreader-inline-fill="" style="--darkreader-inline-fill:#e5e3df;"></path><path d="M556 803.1h28v2.2h-28z" fill="#FBFBFB" p-id="1253" data-darkreader-inline-fill="" style="--darkreader-inline-fill:#e5e3e0;"></path><path d="M556 805.3h28v2.2h-28z" fill="#FCFCFC" p-id="1254" data-darkreader-inline-fill="" style="--darkreader-inline-fill:#e6e4e1;"></path><path d="M556 807.4h28v2.2h-28z" fill="#FDFDFD" p-id="1255" data-darkreader-inline-fill="" style="--darkreader-inline-fill:#e7e5e1;"></path><path d="M556 809.6h28v2.2h-28z" fill="#FEFEFE" p-id="1256" data-darkreader-inline-fill="" style="--darkreader-inline-fill:#e7e5e2;"></path><path d="M556 811.8h28v2.2h-28zM556 814h28-28z" fill="#FFFFFF" p-id="1257" data-darkreader-inline-fill="" style="--darkreader-inline-fill:#e8e6e3;"></path><path d="M175 958c0-8.8 150.9-16 337-16s337 7.2 337 16-150.9 16-337 16-337-7.2-337-16z" fill="#EEEFF3" p-id="1258" data-darkreader-inline-fill="" style="--darkreader-inline-fill:#202324;"></path></svg>