<?xml version="1.0" standalone="no"?><!DOCTYPE svg PUBLIC "-//W3C//DTD SVG 1.1//EN" "http://www.w3.org/Graphics/SVG/1.1/DTD/svg11.dtd"><svg t="1596785738124" class="icon" viewBox="0 0 1024 1024" version="1.1" xmlns="http://www.w3.org/2000/svg" p-id="1148" data-darkreader-inline-fill="" xmlns:xlink="http://www.w3.org/1999/xlink" width="128" height="128"><defs><style type="text/css">[data-darkreader-inline-fill] { fill: var(--darkreader-inline-fill)  !important; }
* {  }
</style></defs><path d="M637.6448 347.0592H142.848a55.1424 55.1424 0 0 1-55.0656-55.0656V201.2672c0-30.3616 24.704-55.0656 55.0656-55.0656h494.8224c30.3616 0 55.0656 24.704 55.0656 55.0656v90.7008a55.168 55.168 0 0 1-55.0912 55.0912zM142.848 165.4016c-19.7888 0-35.8656 16.0768-35.8656 35.8656v90.7008c0 19.7888 16.0768 35.8656 35.8656 35.8656h494.8224c19.7888 0 35.8656-16.0768 35.8656-35.8656V201.2672c0-19.7888-16.0768-35.8656-35.8656-35.8656H142.848z" fill="#008CFF" p-id="1149" data-darkreader-inline-fill="" style="--darkreader-inline-fill:#0070cc;"></path><path d="M169.5744 228.1728h36.9408v36.9408H169.5744zM238.5152 228.1728h36.9408v36.9408H238.5152zM307.456 228.1728h36.9408v36.9408H307.456zM552.832 265.088h-134.1696a18.4576 18.4576 0 0 1 0-36.9152h134.1696a18.4576 18.4576 0 0 1 0 36.9152z" fill="#008CFF" p-id="1150" data-darkreader-inline-fill="" style="--darkreader-inline-fill:#0070cc;"></path><path d="M637.6448 612.4288H142.848a55.1424 55.1424 0 0 1-55.0656-55.0656v-90.7008c0-30.3616 24.704-55.0656 55.0656-55.0656h494.8224c30.3616 0 55.0656 24.704 55.0656 55.0656v90.7008a55.1424 55.1424 0 0 1-55.0912 55.0656zM142.848 430.7712c-19.7888 0-35.8656 16.0768-35.8656 35.8656v90.7008c0 19.7888 16.0768 35.8656 35.8656 35.8656h494.8224c19.7888 0 35.8656-16.0768 35.8656-35.8656v-90.7008c0-19.7888-16.0768-35.8656-35.8656-35.8656H142.848z" fill="#008CFF" p-id="1151" data-darkreader-inline-fill="" style="--darkreader-inline-fill:#0070cc;"></path><path d="M637.5936 461.5168H142.7712a5.0688 5.0688 0 0 0-5.0176 5.1712v90.624c0 2.7392 2.2528 5.1712 5.0176 5.1712h494.8224a5.3248 5.3248 0 0 0 5.1712-5.1712v-90.624a5.12 5.12 0 0 0-5.1712-5.1712zM206.5664 530.5088H169.5744v-36.992h36.992v36.992z m68.8384 0H238.5664v-36.992h36.8384v36.992z m68.9664 0h-36.992v-36.992h36.992v36.992z m208.4096 0h-134.0928a18.432 18.432 0 0 1-18.4064-18.5856c0-10.1888 8.2432-18.4064 18.4064-18.4064h134.0928a18.5088 18.5088 0 0 1 0 36.992z" fill="#1AC678" p-id="1152" data-darkreader-inline-fill="" style="--darkreader-inline-fill:#159e60;"></path><path d="M637.6448 877.7984H142.848a55.1424 55.1424 0 0 1-55.0656-55.0656v-90.7008c0-30.3616 24.704-55.0656 55.0656-55.0656h494.8224c30.3616 0 55.0656 24.704 55.0656 55.0656v90.7008a55.1424 55.1424 0 0 1-55.0912 55.0656zM142.848 696.1408c-19.7888 0-35.8656 16.0768-35.8656 35.8656v90.7008c0 19.7888 16.0768 35.8656 35.8656 35.8656h494.8224c19.7888 0 35.8656-16.0768 35.8656-35.8656v-90.7008c0-19.7888-16.0768-35.8656-35.8656-35.8656H142.848z" fill="#008CFF" p-id="1153" data-darkreader-inline-fill="" style="--darkreader-inline-fill:#0070cc;"></path><path d="M169.5744 758.912h36.9408v36.9408H169.5744zM238.5152 758.912h36.9408v36.9408H238.5152zM307.456 758.912h36.9408v36.9408H307.456zM552.832 795.8272h-134.1696a18.4576 18.4576 0 0 1 0-36.9152h134.1696a18.4576 18.4576 0 0 1 0 36.9152z" fill="#008CFF" p-id="1154" data-darkreader-inline-fill="" style="--darkreader-inline-fill:#0070cc;"></path><path d="M882.0224 877.7984h-84.8896a54.272 54.272 0 0 1-54.2208-54.2208V317.1584a9.6 9.6 0 0 1 19.2 0v506.4448a35.072 35.072 0 0 0 35.0208 35.0208h84.8896a35.072 35.072 0 0 0 35.0208-35.0208V343.68a16.9728 16.9728 0 0 0-16.9472-16.9472 9.6 9.6 0 0 1 0-19.2c19.9168 0 36.1472 16.2048 36.1472 36.1472v479.8976a54.272 54.272 0 0 1-54.2208 54.2208z" fill="#008CFF" p-id="1155" data-darkreader-inline-fill="" style="--darkreader-inline-fill:#0070cc;"></path><path d="M877.3632 645.248h-17.6384a10.7776 10.7776 0 0 0-10.7776 10.7776v136.1152c0 5.9392 4.8128 10.7776 10.7776 10.7776h17.6384a10.7776 10.7776 0 0 0 10.7776-10.7776v-136.1152a10.8032 10.8032 0 0 0-10.7776-10.7776zM819.456 707.1744h-17.6384a10.7776 10.7776 0 0 0-10.7776 10.7776v74.1888c0 5.9392 4.8128 10.7776 10.7776 10.7776h17.6384a10.7776 10.7776 0 0 0 10.7776-10.7776v-74.1888a10.752 10.752 0 0 0-10.7776-10.7776z" fill="#008CFF" p-id="1156" data-darkreader-inline-fill="" style="--darkreader-inline-fill:#33a7ff;"></path><path d="M800.384 490.3936a6.4 6.4 0 0 1-6.4-6.4V223.6672l-15.4112 30.464a6.4 6.4 0 1 1-11.4176-5.7856l27.52-54.4512a6.4 6.4 0 0 1 12.1088 2.8928v287.2064a6.4 6.4 0 0 1-6.4 6.4z" fill="#00CFFF" p-id="1157" data-darkreader-inline-fill="" style="--darkreader-inline-fill:#00a6cc;"></path><path d="M844.0832 536.8576a6.4 6.4 0 0 1-6.4-6.4V243.2768a6.4 6.4 0 0 1 12.8 0v260.3264l15.4112-30.464a6.4 6.4 0 1 1 11.4176 5.7856l-27.52 54.4256a6.4512 6.4512 0 0 1-5.7088 3.5072z" fill="#00CFFF" p-id="1158" data-darkreader-inline-fill="" style="--darkreader-inline-fill:#00a6cc;"></path></svg>