<?xml version="1.0" standalone="no"?><!DOCTYPE svg PUBLIC "-//W3C//DTD SVG 1.1//EN" "http://www.w3.org/Graphics/SVG/1.1/DTD/svg11.dtd"><svg t="1596785802103" class="icon" viewBox="0 0 1508 1024" version="1.1" xmlns="http://www.w3.org/2000/svg" p-id="902" data-darkreader-inline-fill="" xmlns:xlink="http://www.w3.org/1999/xlink" width="188.5" height="128"><defs><style type="text/css">[data-darkreader-inline-fill] { fill: var(--darkreader-inline-fill)  !important; }
* {  }
</style></defs><path d="M260.608624 0m56.671951 0l995.235298 0q56.671951 0 56.671951 56.671951l0 678.377997q0 56.671951-56.671951 56.671951l-995.235298 0q-56.671951 0-56.671951-56.671951l0-678.377997q0-56.671951 56.671951-56.671951Z" fill="#D9ECFF" p-id="903" data-darkreader-inline-fill="" style="--darkreader-inline-fill:#232627;"></path><path d="M566.510752 226.477126H347.196623a21.06764 21.06764 0 0 1 0-42.135279h219.314129a21.06764 21.06764 0 0 1 0 42.135279zM821.639868 617.913872H347.196623a21.06764 21.06764 0 0 1 0-42.13528H821.639868a21.06764 21.06764 0 1 1 0 42.13528zM1195.379796 226.477126h-75.42215a21.06764 21.06764 0 0 1 0-42.135279h75.42215a21.06764 21.06764 0 1 1 0 42.135279zM1056.333374 226.477126h-18.750199a21.06764 21.06764 0 0 1 0-42.135279h18.750199a21.06764 21.06764 0 0 1 0 42.135279zM1099.522036 692.071963H347.196623a21.06764 21.06764 0 1 1 0-42.135279h752.325413a21.06764 21.06764 0 0 1 0 42.135279z" fill="#3C84F7" p-id="904" data-darkreader-inline-fill="" style="--darkreader-inline-fill:#0744a6;"></path><path d="M1299.875289 830.486356a21.06764 21.06764 0 0 1-21.06764-21.06764v-695.232109a26.755902 26.755902 0 0 0-26.755902-26.755902H239.119631a26.755902 26.755902 0 0 0-26.755902 26.755902v695.232109a21.06764 21.06764 0 0 1-42.135279 0v-695.232109a69.101858 69.101858 0 0 1 68.891181-68.891182h1012.932116a68.891182 68.891182 0 0 1 68.891182 68.048476v695.23211a21.06764 21.06764 0 0 1-21.06764 21.910345zM1388.359376 1011.246704H101.547944A101.546023 101.546023 0 0 1 0.001921 909.068652a21.06764 21.06764 0 0 1 21.06764-21.06764h671.004323a21.06764 21.06764 0 0 1 17.696818 9.691114 51.194364 51.194364 0 0 0 42.135279 23.595757 50.140982 50.140982 0 0 0 43.399338-21.06764l2.738793-3.581498a21.06764 21.06764 0 0 1 16.854112-8.637733h653.09683a21.06764 21.06764 0 0 1 21.067639 21.06764A101.546023 101.546023 0 0 1 1388.359376 1011.246704zM45.929376 930.136292A59.832097 59.832097 0 0 0 101.547944 969.111425H1388.359376a59.832097 59.832097 0 0 0 55.618568-38.343104H825.221367a92.486938 92.486938 0 0 1-74.579444 33.28687 94.593702 94.593702 0 0 1-69.101858-33.28687z" fill="#3C84F7" p-id="905" data-darkreader-inline-fill="" style="--darkreader-inline-fill:#0744a6;"></path><path d="M1000.925482 377.742779h-653.09683a21.06764 21.06764 0 0 1-21.067639-21.067639v-66.784418a21.06764 21.06764 0 0 1 21.067639-21.06764h653.09683a21.06764 21.06764 0 0 1 21.06764 21.06764v66.784418a21.06764 21.06764 0 0 1-21.06764 21.067639z m-632.02919-42.135279h610.96155v-24.649138h-610.96155zM518.055181 533.011284h-170.858558a21.06764 21.06764 0 0 1-21.06764-21.06764v-66.995094a21.06764 21.06764 0 0 1 21.06764-21.06764h170.858558a21.06764 21.06764 0 0 1 21.067639 21.06764v66.995094a21.06764 21.06764 0 0 1-21.067639 21.06764z m-149.790918-42.13528h128.723278v-24.859814h-128.723278z" fill="#3C84F7" p-id="906" data-darkreader-inline-fill="" style="--darkreader-inline-fill:#0744a6;"></path></svg>