<?xml version="1.0" standalone="no"?><!DOCTYPE svg PUBLIC "-//W3C//DTD SVG 1.1//EN" "http://www.w3.org/Graphics/SVG/1.1/DTD/svg11.dtd"><svg t="1596785758096" class="icon" viewBox="0 0 1024 1024" version="1.1" xmlns="http://www.w3.org/2000/svg" p-id="1616" data-darkreader-inline-fill="" xmlns:xlink="http://www.w3.org/1999/xlink" width="128" height="128"><defs><style type="text/css">[data-darkreader-inline-fill] { fill: var(--darkreader-inline-fill)  !important; }
* {  }
</style></defs><path d="M245.5296 275.1488l-14.4128-12.7232a378.0352 378.0352 0 0 1 204.9536-118.7328l3.8912 18.7904a358.8096 358.8096 0 0 0-194.432 112.6656zM436.0704 880.3072a378.0352 378.0352 0 0 1-204.9536-118.7328l14.4128-12.7232a358.6816 358.6816 0 0 0 194.4576 112.64l-3.9168 18.816zM868.7616 630.4768l-18.2016-6.0416c12.0576-36.224 18.176-74.0608 18.176-112.4352s-6.1184-76.2112-18.176-112.4352l18.2016-6.0416c12.7232 38.1696 19.1744 78.0288 19.1744 118.4768s-6.4512 80.3072-19.1744 118.4768zM778.4704 275.1488a358.6816 358.6816 0 0 0-194.4576-112.64l3.8912-18.7904a378.0352 378.0352 0 0 1 204.9536 118.7328l-14.3872 12.6976zM155.2384 630.4768c-12.7232-38.1696-19.1744-78.0288-19.1744-118.4768s6.4512-80.3072 19.1744-118.4768l18.2016 6.0416c-12.0576 36.224-18.176 74.0608-18.176 112.4352s6.1184 76.2112 18.176 112.4352l-18.2016 6.0416zM587.9296 880.3072l-3.8912-18.7904a358.6816 358.6816 0 0 0 194.4576-112.64l14.4128 12.7232a378.3168 378.3168 0 0 1-204.9792 118.7072z" fill="#008CFF" p-id="1617" data-darkreader-inline-fill="" style="--darkreader-inline-fill:#0070cc;"></path><path d="M512 959.0784a80.768 80.768 0 0 1-80.2048-88.8576c4.0192-41.2416 38.528-72.4736 80.2304-72.4736s76.2112 31.232 80.256 72.6272A80.8448 80.8448 0 0 1 512 959.0784z m0-148.5568a67.5072 67.5072 0 0 0-67.5072 61.0816 67.9424 67.9424 0 0 0 67.4816 74.6752 67.9424 67.9424 0 0 0 67.5072-74.5216A67.5072 67.5072 0 0 0 512 810.5216z" fill="#00CFFF" p-id="1618" data-darkreader-inline-fill="" style="--darkreader-inline-fill:#1ad4ff;"></path><path d="M512 229.4784a83.968 83.968 0 0 1-83.3792-92.4416C432.768 94.208 468.6592 61.7216 512 61.7216s79.232 32.4864 83.4304 75.52A83.9936 83.9936 0 0 1 512 229.4784z m0-148.5568a64.3584 64.3584 0 0 0-64.6912 64.6656c0 35.6608 29.0304 64.6656 64.6656 64.6656a64.768 64.768 0 0 0 64.3328-70.9376A64.3328 64.3328 0 0 0 512 80.9216z" fill="#008CFF" p-id="1619" data-darkreader-inline-fill="" style="--darkreader-inline-fill:#33a7ff;"></path><path d="M194.7648 409.6c-11.1872 0-22.5024-2.3552-33.3056-7.2448-1.9456-0.8704-3.9424-1.9456-5.9648-3.0208-39.6288-22.9376-52.864-72.3712-30.6944-110.848a80.3584 80.3584 0 0 1 48.9984-37.632 80.2048 80.2048 0 0 1 68.2752 12.6464 80.512 80.512 0 0 1 22.4768 105.6256A80.5632 80.5632 0 0 1 194.7648 409.6z m0.0768-148.7616c-5.888 0-11.8784 0.768-17.7152 2.3552a67.456 67.456 0 0 0-41.216 31.6672 68.096 68.096 0 0 0 24.8832 92.7744c2.5344 1.3312 4.2496 2.2784 5.9648 3.0208 31.8976 14.4896 69.12 2.4576 86.7072-27.9552a67.7888 67.7888 0 0 0-24.8576-92.8 67.9424 67.9424 0 0 0-33.7664-9.0624z m64.1536 105.088h0.1536-0.1536z" fill="#00CFFF" p-id="1620" data-darkreader-inline-fill="" style="--darkreader-inline-fill:#1ad4ff;"></path><path d="M829.1328 779.1616a83.456 83.456 0 0 1-49.1264-16.0768 83.712 83.712 0 0 1-23.3216-109.7728 83.584 83.584 0 0 1 113.3312-31.4368c41.2416 23.8592 55.0144 75.264 31.9744 115.2768a83.5072 83.5072 0 0 1-50.944 39.1168c-7.2448 1.8944-14.592 2.8928-21.9136 2.8928z m0.128-148.736c-22.4 0-43.9552 11.7504-55.9616 32.4608a64.64 64.64 0 0 0 23.7824 88.4736c14.8224 8.576 32.256 10.9056 48.9728 6.3744a64.256 64.256 0 0 0 39.2704-30.1824 64.896 64.896 0 0 0-23.7312-88.3968c-2.3552-1.2544-3.9936-2.1504-5.6576-2.8928a63.872 63.872 0 0 0-26.6752-5.8368zM194.816 779.1616c-7.2704 0-14.6176-0.9728-21.8624-2.8928a83.5328 83.5328 0 0 1-50.944-39.1168 84.1728 84.1728 0 0 1 38.1696-118.4 83.456 83.456 0 0 1 107.1104 34.56 83.712 83.712 0 0 1-23.3728 109.824 86.272 86.272 0 0 1-7.1424 4.736 84.3008 84.3008 0 0 1-41.9584 11.2896z m-0.0768-148.736a64.1024 64.1024 0 0 0-31.6672 8.3712c-31.5392 18.2528-42.1888 57.9072-24.3968 88.7552a64.256 64.256 0 0 0 39.2704 30.1824 63.9744 63.9744 0 0 0 54.4512-9.9584l0.1792-0.128a64.6144 64.6144 0 0 0 18.0992-84.7616 64.5632 64.5632 0 0 0-55.936-32.4608z" fill="#008CFF" p-id="1621" data-darkreader-inline-fill="" style="--darkreader-inline-fill:#0070cc;"></path><path d="M829.2352 409.6a80.5632 80.5632 0 0 1-69.7856-40.4736 80.5376 80.5376 0 0 1 22.6048-105.7024 80 80 0 0 1 68.1728-12.5696c20.8128 5.6064 38.2208 18.944 48.9984 37.632a80.9472 80.9472 0 0 1-29.568 110.2592l-0.1792 0.1024-3.0208-5.6576 2.0736 6.144c-2.0224 1.0752-4.0192 2.1504-5.9904 3.0464a80.8192 80.8192 0 0 1-33.3056 7.2192z m-0.0768-148.7616a67.584 67.584 0 0 0-39.4752 12.8512 67.84 67.84 0 0 0-19.1232 89.0368 67.6352 67.6352 0 0 0 91.904 25.3184l3.968 5.12-3.2-5.5296a68.096 68.096 0 0 0 24.8832-92.7744 67.5072 67.5072 0 0 0-41.216-31.6672 70.0928 70.0928 0 0 0-17.7408-2.3552z" fill="#00CFFF" p-id="1622" data-darkreader-inline-fill="" style="--darkreader-inline-fill:#1ad4ff;"></path><path d="M465.7152 660.0704a6.9888 6.9888 0 0 1-6.8352-5.6576 6.9632 6.9632 0 0 1 5.5552-8.0896l99.7376-18.6624a6.9632 6.9632 0 0 1 8.0896 5.5552 6.9632 6.9632 0 0 1-5.5552 8.0896l-99.7376 18.6624a6.5536 6.5536 0 0 1-1.2544 0.1024zM475.4432 686.0288a6.9888 6.9888 0 0 1-6.8352-5.6576 6.9632 6.9632 0 0 1 5.5552-8.0896l83.8144-15.6672a7.0144 7.0144 0 0 1 8.0896 5.5552 6.9632 6.9632 0 0 1-5.5552 8.0896l-83.8144 15.6672a6.7328 6.7328 0 0 1-1.2544 0.1024zM465.7152 633.3952a6.9888 6.9888 0 0 1-6.8352-5.6576 6.9632 6.9632 0 0 1 5.5552-8.0896l99.7376-18.6624a6.9888 6.9888 0 0 1 8.0896 5.5552 6.9632 6.9632 0 0 1-5.5552 8.0896l-99.7376 18.6624a6.5536 6.5536 0 0 1-1.2544 0.1024z" fill="#1AC678" p-id="1623" data-darkreader-inline-fill="" style="--darkreader-inline-fill:#47e79f;"></path><path d="M515.2768 701.6448h-0.4096a41.4208 41.4208 0 0 1-35.1232-19.4816 6.9888 6.9888 0 0 1 2.176-9.5744 6.9888 6.9888 0 0 1 9.5744 2.176c5.12 8.1152 13.9008 13.0048 23.4752 13.0304h0.256c13.0304 0 24.2176-9.216 26.7008-22.016a6.7072 6.7072 0 0 1 8.1152-5.4784 6.912 6.912 0 0 1 5.4784 8.1152 40.96 40.96 0 0 1-40.2432 33.2288zM468.6848 605.0048a6.9632 6.9632 0 0 1-6.7072-5.12l-3.7376-14.0032a41.4976 41.4976 0 0 0-17.4592-24.064 131.1488 131.1488 0 0 1-53.7088-146.304c16.3328-54.8608 67.712-93.1584 124.928-93.1584s108.5952 38.2976 124.928 93.1584a131.1232 131.1232 0 0 1-52.8128 145.7152 4.5568 4.5568 0 0 1-0.8192 0.6144c-7.552 5.0432-13.312 12.5696-16.1792 21.1456a6.8864 6.8864 0 0 1-5.2992 4.5824l-91.8784 17.3056a5.2224 5.2224 0 0 1-1.2544 0.128zM512 336.2048a117.1712 117.1712 0 0 0-111.616 83.2512 117.1456 117.1456 0 0 0 47.9744 130.7392c11.4176 7.424 19.6864 18.816 23.2704 32.0768l2.0736 7.808 81.7408-15.4112c4.0448-9.4976 10.7776-17.792 19.2768-23.7568a5.9648 5.9648 0 0 1 0.9216-0.7168 117.1456 117.1456 0 0 0 47.9744-130.7392A117.1712 117.1712 0 0 0 512 336.2048z m67.456 219.904h0.1792-0.1792z" fill="#1AC678" p-id="1624" data-darkreader-inline-fill="" style="--darkreader-inline-fill:#159e60;"></path><path d="M512 496.0256a6.8352 6.8352 0 0 1-4.8896-2.0224l-35.072-35.072a6.9376 6.9376 0 0 1 9.8048-9.8048L512 479.3088l30.1824-30.1824a6.9376 6.9376 0 0 1 9.8048 9.8048l-35.072 35.072a6.9376 6.9376 0 0 1-4.9152 2.0224z" fill="#1AC678" p-id="1625" data-darkreader-inline-fill="" style="--darkreader-inline-fill:#47e79f;"></path><path d="M512 593.7664a6.9376 6.9376 0 0 1-6.9376-6.9376v-97.7408a6.9376 6.9376 0 0 1 13.8752 0v97.7408c0 3.84-3.1232 6.9376-6.9376 6.9376z" fill="#1AC678" p-id="1626" data-darkreader-inline-fill="" style="--darkreader-inline-fill:#47e79f;"></path></svg>